<svg width="26" height="18" viewBox="0 0 26 18" fill="none" xmlns="http://www.w3.org/2000/svg">
<path d="M11.935 7.34875V10.3019C11.935 11.5831 11.7983 12.6886 11.5248 13.6183C11.2514 14.5402 10.8569 15.298 10.3412 15.8917C9.83344 16.4777 9.22797 16.9113 8.52484 17.1925C7.82172 17.4738 7.04047 17.6144 6.18109 17.6144C5.49359 17.6144 4.85297 17.5284 4.25922 17.3566C3.66547 17.1769 3.13031 16.8995 2.65375 16.5245C2.185 16.1495 1.77875 15.6769 1.435 15.1066C1.09906 14.5284 0.841248 13.8409 0.66156 13.0441C0.481873 12.2472 0.392029 11.3331 0.392029 10.3019V7.34875C0.392029 6.0675 0.528748 4.96985 0.802185 4.05579C1.08344 3.13391 1.47797 2.38 1.98578 1.79407C2.5014 1.20813 3.11078 0.778442 3.8139 0.505005C4.51703 0.223755 5.29828 0.0831299 6.15765 0.0831299C6.84515 0.0831299 7.48187 0.172974 8.06781 0.352661C8.66156 0.524536 9.19672 0.794067 9.67328 1.16125C10.1498 1.52844 10.5561 2.0011 10.892 2.57922C11.228 3.14954 11.4858 3.83313 11.6655 4.63C11.8452 5.41907 11.935 6.32532 11.935 7.34875ZM8.54828 10.7472V6.89172C8.54828 6.27454 8.51312 5.73547 8.44281 5.27454C8.38031 4.8136 8.28265 4.42297 8.14984 4.10266C8.01703 3.77454 7.85297 3.50891 7.65765 3.30579C7.46234 3.10266 7.23969 2.95422 6.98969 2.86047C6.73969 2.76672 6.46234 2.71985 6.15765 2.71985C5.77484 2.71985 5.435 2.79407 5.13812 2.9425C4.84906 3.09094 4.60297 3.32922 4.39984 3.65735C4.19672 3.97766 4.04047 4.40735 3.93109 4.94641C3.82953 5.47766 3.77875 6.1261 3.77875 6.89172V10.7472C3.77875 11.3644 3.81 11.9073 3.8725 12.3761C3.94281 12.8448 4.04437 13.2472 4.17719 13.5831C4.31781 13.9113 4.48187 14.1808 4.66937 14.3917C4.86469 14.5948 5.08734 14.7433 5.33734 14.837C5.59515 14.9308 5.8764 14.9777 6.18109 14.9777C6.55609 14.9777 6.88812 14.9034 7.17719 14.755C7.47406 14.5988 7.72406 14.3566 7.92719 14.0284C8.13812 13.6925 8.29437 13.255 8.39594 12.7159C8.4975 12.1769 8.54828 11.5206 8.54828 10.7472ZM25.9037 14.7433V17.38H14.2319V15.13L19.7514 9.21204C20.3061 8.59485 20.7436 8.05188 21.0639 7.58313C21.3842 7.10657 21.6147 6.68079 21.7553 6.30579C21.9037 5.92297 21.978 5.55969 21.978 5.21594C21.978 4.70032 21.892 4.25891 21.7202 3.89172C21.5483 3.51672 21.2944 3.22766 20.9584 3.02454C20.6303 2.82141 20.2241 2.71985 19.7397 2.71985C19.2241 2.71985 18.7787 2.84485 18.4037 3.09485C18.0366 3.34485 17.7553 3.6925 17.56 4.13782C17.3725 4.58313 17.2787 5.08704 17.2787 5.64954H13.892C13.892 4.63391 14.1342 3.70422 14.6186 2.86047C15.103 2.00891 15.7866 1.33313 16.6694 0.83313C17.5522 0.325317 18.5991 0.0714111 19.81 0.0714111C21.0053 0.0714111 22.0131 0.266724 22.8334 0.657349C23.6616 1.04016 24.2866 1.59485 24.7084 2.32141C25.1381 3.04016 25.353 3.89954 25.353 4.89954C25.353 5.46204 25.2631 6.01282 25.0834 6.55188C24.9037 7.08313 24.6459 7.61438 24.31 8.14563C23.9819 8.66907 23.5834 9.20032 23.1147 9.73938C22.6459 10.2784 22.1264 10.837 21.5561 11.4152L18.5912 14.7433H25.9037Z" fill="white"/>
</svg>
