<svg width="26" height="18" viewBox="0 0 26 18" fill="none" xmlns="http://www.w3.org/2000/svg">
<path d="M11.935 7.34973V10.3029C11.935 11.5841 11.7983 12.6896 11.5248 13.6193C11.2514 14.5411 10.8569 15.299 10.3412 15.8927C9.83344 16.4786 9.22797 16.9122 8.52484 17.1935C7.82172 17.4747 7.04047 17.6154 6.18109 17.6154C5.49359 17.6154 4.85297 17.5294 4.25922 17.3575C3.66547 17.1779 3.13031 16.9005 2.65375 16.5255C2.185 16.1505 1.77875 15.6779 1.435 15.1075C1.09906 14.5294 0.841248 13.8419 0.66156 13.045C0.481873 12.2482 0.392029 11.3341 0.392029 10.3029V7.34973C0.392029 6.06848 0.528748 4.97083 0.802185 4.05676C1.08344 3.13489 1.47797 2.38098 1.98578 1.79504C2.5014 1.20911 3.11078 0.779419 3.8139 0.505981C4.51703 0.224731 5.29828 0.0841064 6.15765 0.0841064C6.84515 0.0841064 7.48187 0.17395 8.06781 0.353638C8.66156 0.525513 9.19672 0.795044 9.67328 1.16223C10.1498 1.52942 10.5561 2.00208 10.892 2.5802C11.228 3.15051 11.4858 3.83411 11.6655 4.63098C11.8452 5.42004 11.935 6.32629 11.935 7.34973ZM8.54828 10.7482V6.8927C8.54828 6.27551 8.51312 5.73645 8.44281 5.27551C8.38031 4.81458 8.28265 4.42395 8.14984 4.10364C8.01703 3.77551 7.85297 3.50989 7.65765 3.30676C7.46234 3.10364 7.23969 2.9552 6.98969 2.86145C6.73969 2.7677 6.46234 2.72083 6.15765 2.72083C5.77484 2.72083 5.435 2.79504 5.13812 2.94348C4.84906 3.09192 4.60297 3.3302 4.39984 3.65833C4.19672 3.97864 4.04047 4.40833 3.93109 4.94739C3.82953 5.47864 3.77875 6.12708 3.77875 6.8927V10.7482C3.77875 11.3654 3.81 11.9083 3.8725 12.3771C3.94281 12.8458 4.04437 13.2482 4.17719 13.5841C4.31781 13.9122 4.48187 14.1818 4.66937 14.3927C4.86469 14.5958 5.08734 14.7443 5.33734 14.838C5.59515 14.9318 5.8764 14.9786 6.18109 14.9786C6.55609 14.9786 6.88812 14.9044 7.17719 14.756C7.47406 14.5997 7.72406 14.3575 7.92719 14.0294C8.13812 13.6935 8.29437 13.256 8.39594 12.7169C8.4975 12.1779 8.54828 11.5216 8.54828 10.7482ZM17.6889 7.38489H19.4936C20.0717 7.38489 20.5483 7.28723 20.9233 7.09192C21.2983 6.88879 21.5756 6.60754 21.7553 6.24817C21.9428 5.88098 22.0366 5.4552 22.0366 4.97083C22.0366 4.53333 21.9506 4.14661 21.7787 3.81067C21.6147 3.46692 21.3608 3.20129 21.017 3.01379C20.6733 2.81848 20.2397 2.72083 19.7162 2.72083C19.3022 2.72083 18.9194 2.80286 18.5678 2.96692C18.2162 3.13098 17.935 3.36145 17.7241 3.65833C17.5131 3.9552 17.4077 4.31458 17.4077 4.73645H14.0209C14.0209 3.79895 14.2709 2.98254 14.7709 2.28723C15.2787 1.59192 15.9584 1.04895 16.81 0.658325C17.6616 0.2677 18.5991 0.0723877 19.6225 0.0723877C20.7787 0.0723877 21.7905 0.259888 22.6577 0.634888C23.5248 1.00208 24.2006 1.54504 24.685 2.26379C25.1694 2.98254 25.4116 3.87317 25.4116 4.93567C25.4116 5.47473 25.2866 5.99817 25.0366 6.50598C24.7866 7.00598 24.4272 7.45911 23.9584 7.86536C23.4975 8.26379 22.935 8.58411 22.2709 8.82629C21.6069 9.06067 20.8608 9.17786 20.0327 9.17786H17.6889V7.38489ZM17.6889 9.95129V8.2052H20.0327C20.9623 8.2052 21.7787 8.31067 22.4819 8.52161C23.185 8.73254 23.7748 9.03723 24.2514 9.43567C24.728 9.82629 25.0873 10.2911 25.3295 10.8302C25.5717 11.3615 25.6928 11.9513 25.6928 12.5997C25.6928 13.3966 25.5405 14.1075 25.2358 14.7325C24.9311 15.3497 24.5014 15.8732 23.9467 16.3029C23.3998 16.7325 22.7592 17.0607 22.0248 17.2872C21.2905 17.506 20.4897 17.6154 19.6225 17.6154C18.9037 17.6154 18.1967 17.5177 17.5014 17.3224C16.8139 17.1193 16.1889 16.8185 15.6264 16.42C15.0717 16.0138 14.6264 15.506 14.2905 14.8966C13.9623 14.2794 13.7983 13.549 13.7983 12.7052H17.185C17.185 13.1427 17.2944 13.5333 17.5131 13.8771C17.7319 14.2208 18.0327 14.4904 18.4155 14.6857C18.8061 14.881 19.2397 14.9786 19.7162 14.9786C20.2553 14.9786 20.7162 14.881 21.0991 14.6857C21.4897 14.4825 21.7866 14.2013 21.9897 13.8419C22.2006 13.4747 22.3061 13.049 22.3061 12.5646C22.3061 11.9396 22.1928 11.4396 21.9662 11.0646C21.7397 10.6818 21.4155 10.4005 20.9936 10.2208C20.5717 10.0411 20.0717 9.95129 19.4936 9.95129H17.6889Z" fill="white"/>
</svg>
