<svg width="23" height="18" viewBox="0 0 23 18" fill="none" xmlns="http://www.w3.org/2000/svg">
<path d="M11.935 7.34973V10.3029C11.935 11.5841 11.7983 12.6896 11.5248 13.6193C11.2514 14.5411 10.8569 15.299 10.3412 15.8927C9.83344 16.4786 9.22797 16.9122 8.52484 17.1935C7.82172 17.4747 7.04047 17.6154 6.18109 17.6154C5.49359 17.6154 4.85297 17.5294 4.25922 17.3575C3.66547 17.1779 3.13031 16.9005 2.65375 16.5255C2.185 16.1505 1.77875 15.6779 1.435 15.1075C1.09906 14.5294 0.841248 13.8419 0.66156 13.045C0.481873 12.2482 0.392029 11.3341 0.392029 10.3029V7.34973C0.392029 6.06848 0.528748 4.97083 0.802185 4.05676C1.08344 3.13489 1.47797 2.38098 1.98578 1.79504C2.5014 1.20911 3.11078 0.779419 3.8139 0.505981C4.51703 0.224731 5.29828 0.0841064 6.15765 0.0841064C6.84515 0.0841064 7.48187 0.17395 8.06781 0.353638C8.66156 0.525513 9.19672 0.795044 9.67328 1.16223C10.1498 1.52942 10.5561 2.00208 10.892 2.5802C11.228 3.15051 11.4858 3.83411 11.6655 4.63098C11.8452 5.42004 11.935 6.32629 11.935 7.34973ZM8.54828 10.7482V6.8927C8.54828 6.27551 8.51312 5.73645 8.44281 5.27551C8.38031 4.81458 8.28265 4.42395 8.14984 4.10364C8.01703 3.77551 7.85297 3.50989 7.65765 3.30676C7.46234 3.10364 7.23969 2.9552 6.98969 2.86145C6.73969 2.7677 6.46234 2.72083 6.15765 2.72083C5.77484 2.72083 5.435 2.79504 5.13812 2.94348C4.84906 3.09192 4.60297 3.3302 4.39984 3.65833C4.19672 3.97864 4.04047 4.40833 3.93109 4.94739C3.82953 5.47864 3.77875 6.12708 3.77875 6.8927V10.7482C3.77875 11.3654 3.81 11.9083 3.8725 12.3771C3.94281 12.8458 4.04437 13.2482 4.17719 13.5841C4.31781 13.9122 4.48187 14.1818 4.66937 14.3927C4.86469 14.5958 5.08734 14.7443 5.33734 14.838C5.59515 14.9318 5.8764 14.9786 6.18109 14.9786C6.55609 14.9786 6.88812 14.9044 7.17719 14.756C7.47406 14.5997 7.72406 14.3575 7.92719 14.0294C8.13812 13.6935 8.29437 13.256 8.39594 12.7169C8.4975 12.1779 8.54828 11.5216 8.54828 10.7482ZM22.4584 0.283325V17.381H19.0834V4.17395L15.0287 5.46301V2.80286L22.0952 0.283325H22.4584Z" fill="white"/>
</svg>
