<svg width="26" height="18" viewBox="0 0 26 18" fill="none" xmlns="http://www.w3.org/2000/svg">
<path d="M12.019 7.34875V10.3019C12.019 11.5831 11.8823 12.6886 11.6089 13.6183C11.3354 14.5402 10.9409 15.298 10.4253 15.8917C9.91748 16.4777 9.31201 16.9113 8.60889 17.1925C7.90576 17.4738 7.12451 17.6144 6.26514 17.6144C5.57764 17.6144 4.93701 17.5284 4.34326 17.3566C3.74951 17.1769 3.21436 16.8995 2.73779 16.5245C2.26904 16.1495 1.86279 15.6769 1.51904 15.1066C1.18311 14.5284 0.925293 13.8409 0.745605 13.0441C0.565918 12.2472 0.476074 11.3331 0.476074 10.3019V7.34875C0.476074 6.0675 0.612793 4.96985 0.88623 4.05579C1.16748 3.13391 1.56201 2.38 2.06982 1.79407C2.58545 1.20813 3.19482 0.778442 3.89795 0.505005C4.60107 0.223755 5.38232 0.0831299 6.2417 0.0831299C6.9292 0.0831299 7.56592 0.172974 8.15186 0.352661C8.74561 0.524536 9.28076 0.794067 9.75732 1.16125C10.2339 1.52844 10.6401 2.0011 10.9761 2.57922C11.312 3.14954 11.5698 3.83313 11.7495 4.63C11.9292 5.41907 12.019 6.32532 12.019 7.34875ZM8.63232 10.7472V6.89172C8.63232 6.27454 8.59717 5.73547 8.52686 5.27454C8.46436 4.8136 8.3667 4.42297 8.23389 4.10266C8.10107 3.77454 7.93701 3.50891 7.7417 3.30579C7.54639 3.10266 7.32373 2.95422 7.07373 2.86047C6.82373 2.76672 6.54639 2.71985 6.2417 2.71985C5.85889 2.71985 5.51904 2.79407 5.22217 2.9425C4.93311 3.09094 4.68701 3.32922 4.48389 3.65735C4.28076 3.97766 4.12451 4.40735 4.01514 4.94641C3.91357 5.47766 3.86279 6.1261 3.86279 6.89172V10.7472C3.86279 11.3644 3.89404 11.9073 3.95654 12.3761C4.02686 12.8448 4.12842 13.2472 4.26123 13.5831C4.40186 13.9113 4.56592 14.1808 4.75342 14.3917C4.94873 14.5948 5.17139 14.7433 5.42139 14.837C5.6792 14.9308 5.96045 14.9777 6.26514 14.9777C6.64014 14.9777 6.97217 14.9034 7.26123 14.755C7.55811 14.5988 7.80811 14.3566 8.01123 14.0284C8.22217 13.6925 8.37842 13.255 8.47998 12.7159C8.58154 12.1769 8.63232 11.5206 8.63232 10.7472ZM17.4917 9.61047L14.7964 8.96594L15.769 0.317505H25.355V3.04797H18.5464L18.1245 6.83313C18.3511 6.70032 18.6948 6.55969 19.1558 6.41125C19.6167 6.255 20.1323 6.17688 20.7026 6.17688C21.5308 6.17688 22.2651 6.30579 22.9058 6.5636C23.5464 6.82141 24.0894 7.19641 24.5347 7.6886C24.9878 8.18079 25.3315 8.78235 25.5659 9.49329C25.8003 10.2042 25.9175 11.0089 25.9175 11.9073C25.9175 12.6652 25.8003 13.3878 25.5659 14.0753C25.3315 14.755 24.9761 15.3644 24.4995 15.9034C24.0229 16.4347 23.4253 16.8527 22.7065 17.1573C21.9878 17.462 21.1362 17.6144 20.1519 17.6144C19.4175 17.6144 18.7065 17.505 18.019 17.2863C17.3394 17.0675 16.7261 16.7433 16.1792 16.3136C15.6401 15.8839 15.2065 15.3644 14.8784 14.755C14.5581 14.1378 14.3901 13.4347 14.3745 12.6456H17.7261C17.7729 13.13 17.8979 13.548 18.1011 13.8995C18.312 14.2433 18.5894 14.5089 18.9331 14.6964C19.2769 14.8839 19.6792 14.9777 20.1401 14.9777C20.5698 14.9777 20.937 14.8956 21.2417 14.7316C21.5464 14.5675 21.7925 14.3409 21.98 14.0519C22.1675 13.755 22.3042 13.4113 22.3901 13.0206C22.4839 12.6222 22.5308 12.1925 22.5308 11.7316C22.5308 11.2706 22.4761 10.8527 22.3667 10.4777C22.2573 10.1027 22.0894 9.77844 21.8628 9.505C21.6362 9.23157 21.3472 9.02063 20.9956 8.87219C20.6519 8.72375 20.2495 8.64954 19.7886 8.64954C19.1636 8.64954 18.6792 8.74719 18.3354 8.9425C17.9995 9.13782 17.7183 9.36047 17.4917 9.61047Z" fill="white"/>
</svg>
