<svg width="26" height="18" viewBox="0 0 26 18" fill="none" xmlns="http://www.w3.org/2000/svg">
<path d="M11.935 7.34973V10.3029C11.935 11.5841 11.7983 12.6896 11.5248 13.6193C11.2514 14.5411 10.8569 15.299 10.3412 15.8927C9.83344 16.4786 9.22797 16.9122 8.52484 17.1935C7.82172 17.4747 7.04047 17.6154 6.18109 17.6154C5.49359 17.6154 4.85297 17.5294 4.25922 17.3575C3.66547 17.1779 3.13031 16.9005 2.65375 16.5255C2.185 16.1505 1.77875 15.6779 1.435 15.1075C1.09906 14.5294 0.841248 13.8419 0.66156 13.045C0.481873 12.2482 0.392029 11.3341 0.392029 10.3029V7.34973C0.392029 6.06848 0.528748 4.97083 0.802185 4.05676C1.08344 3.13489 1.47797 2.38098 1.98578 1.79504C2.5014 1.20911 3.11078 0.779419 3.8139 0.505981C4.51703 0.224731 5.29828 0.0841064 6.15765 0.0841064C6.84515 0.0841064 7.48187 0.17395 8.06781 0.353638C8.66156 0.525513 9.19672 0.795044 9.67328 1.16223C10.1498 1.52942 10.5561 2.00208 10.892 2.5802C11.228 3.15051 11.4858 3.83411 11.6655 4.63098C11.8452 5.42004 11.935 6.32629 11.935 7.34973ZM8.54828 10.7482V6.8927C8.54828 6.27551 8.51312 5.73645 8.44281 5.27551C8.38031 4.81458 8.28265 4.42395 8.14984 4.10364C8.01703 3.77551 7.85297 3.50989 7.65765 3.30676C7.46234 3.10364 7.23969 2.9552 6.98969 2.86145C6.73969 2.7677 6.46234 2.72083 6.15765 2.72083C5.77484 2.72083 5.435 2.79504 5.13812 2.94348C4.84906 3.09192 4.60297 3.3302 4.39984 3.65833C4.19672 3.97864 4.04047 4.40833 3.93109 4.94739C3.82953 5.47864 3.77875 6.12708 3.77875 6.8927V10.7482C3.77875 11.3654 3.81 11.9083 3.8725 12.3771C3.94281 12.8458 4.04437 13.2482 4.17719 13.5841C4.31781 13.9122 4.48187 14.1818 4.66937 14.3927C4.86469 14.5958 5.08734 14.7443 5.33734 14.838C5.59515 14.9318 5.8764 14.9786 6.18109 14.9786C6.55609 14.9786 6.88812 14.9044 7.17719 14.756C7.47406 14.5997 7.72406 14.3575 7.92719 14.0294C8.13812 13.6935 8.29437 13.256 8.39594 12.7169C8.4975 12.1779 8.54828 11.5216 8.54828 10.7482ZM22.9389 0.1427H23.4311V2.83801H23.2319C22.3412 2.83801 21.5483 2.97083 20.853 3.23645C20.1577 3.50208 19.5678 3.88098 19.0834 4.37317C18.6069 4.85754 18.2397 5.44348 17.9819 6.13098C17.7319 6.81848 17.6069 7.58801 17.6069 8.43958V11.2755C17.6069 11.8849 17.6655 12.424 17.7827 12.8927C17.9077 13.3536 18.0834 13.7404 18.31 14.0529C18.5444 14.3575 18.8178 14.588 19.1303 14.7443C19.4428 14.8927 19.7944 14.9669 20.185 14.9669C20.5522 14.9669 20.8842 14.8888 21.1811 14.7325C21.4858 14.5763 21.7436 14.3575 21.9545 14.0763C22.1733 13.7872 22.3373 13.4513 22.4467 13.0685C22.5639 12.6779 22.6225 12.2521 22.6225 11.7911C22.6225 11.3302 22.5639 10.9044 22.4467 10.5138C22.3373 10.1232 22.1733 9.78723 21.9545 9.50598C21.7358 9.21692 21.4702 8.99426 21.1577 8.83801C20.8452 8.68176 20.4936 8.60364 20.103 8.60364C19.5717 8.60364 19.103 8.72864 18.6967 8.97864C18.2983 9.22083 17.9858 9.53333 17.7592 9.91614C17.5327 10.299 17.4116 10.7013 17.3959 11.1232L16.3764 10.4669C16.3998 9.86536 16.5248 9.29504 16.7514 8.75598C16.9858 8.21692 17.3061 7.74036 17.7123 7.32629C18.1264 6.90442 18.6225 6.57629 19.2006 6.34192C19.7787 6.09973 20.4311 5.97864 21.1577 5.97864C21.9545 5.97864 22.6537 6.13098 23.2553 6.43567C23.8647 6.74036 24.3725 7.15833 24.7787 7.68958C25.185 8.22083 25.4897 8.83411 25.6928 9.52942C25.8959 10.2247 25.9975 10.9669 25.9975 11.756C25.9975 12.5841 25.8608 13.3536 25.5873 14.0646C25.3217 14.7755 24.935 15.3966 24.4272 15.9279C23.9272 16.4591 23.3256 16.8732 22.6225 17.17C21.9194 17.4669 21.1303 17.6154 20.2553 17.6154C19.3491 17.6154 18.5248 17.4513 17.7827 17.1232C17.0483 16.7872 16.4155 16.3185 15.8842 15.7169C15.353 15.1154 14.9428 14.4005 14.6537 13.5724C14.3725 12.7443 14.2319 11.838 14.2319 10.8536V9.54114C14.2319 8.16614 14.4311 6.90833 14.8295 5.7677C15.2358 4.61926 15.8178 3.62708 16.5756 2.79114C17.3334 1.94739 18.2475 1.29504 19.3178 0.834106C20.3881 0.373169 21.5952 0.1427 22.9389 0.1427Z" fill="white"/>
</svg>
